<svg xmlns="http://www.w3.org/2000/svg" version="1.1" xmlns:xlink="http://www.w3.org/1999/xlink" xmlns:svgjs="http://svgjs.dev/svgjs" width="1500" height="1081" viewBox="0 0 1500 1081"><g transform="matrix(1,0,0,1,-0.6238650342686469,-1.74354838709678)"><svg viewBox="0 0 344 248" data-background-color="#ffffff" preserveAspectRatio="xMidYMid meet" height="1081" width="1500" xmlns="http://www.w3.org/2000/svg" xmlns:xlink="http://www.w3.org/1999/xlink"><g id="tight-bounds" transform="matrix(1,0,0,1,0.14307304785893393,0.4000000000000057)"><svg viewBox="0 0 343.71385390428213 247.2" height="247.2" width="343.71385390428213"><g><svg viewBox="0 0 343.71385390428213 247.2" height="247.2" width="343.71385390428213"><g><svg viewBox="0 0 343.71385390428213 247.2" height="247.2" width="343.71385390428213"><g id="textblocktransform"><svg viewBox="0 0 343.71385390428213 247.2" height="247.2" width="343.71385390428213" id="textblock"><g><svg viewBox="0 0 343.71385390428213 247.2" height="247.2" width="343.71385390428213"><g transform="matrix(1,0,0,1,0,0)"><svg width="343.71385390428213" viewBox="0 -38.2 55.2 39.7" height="247.2" data-palette-color="#2e30ff"><path d="M25.95-33.3L25.95-33.3Q24.9-33.3 23.05-31.8 21.2-30.3 20.05-29.03 18.9-27.75 18.7-27.45L18.7-27.45Q18.15-26.7 17.75-26.7L17.75-26.7Q17.4-26.7 17.4-27.25L17.4-27.25Q17.4-27.4 17.5-27.8L17.5-27.8Q18.65-31.25 22.33-34.73 26-38.2 29.25-38.2L29.25-38.2Q32.15-38.2 32.15-33.75L32.15-33.75Q32.15-31.2 31.05-27.53 29.95-23.85 29.2-22.13 28.45-20.4 27.95-19.4L27.95-19.4Q26.6-16.75 24.95-14.13 23.3-11.5 20.93-8.6 18.55-5.7 16.03-3.53 13.5-1.35 10.4 0.08 7.3 1.5 4.3 1.5L4.3 1.5Q0 1.5 0-4.55L0-4.55Q0-9.5 1.95-14.68 3.9-19.85 6.7-23.68 9.5-27.5 12.48-30.2 15.45-32.9 17.7-33.6L17.7-33.6Q17.95-33.7 18.35-33.7 18.75-33.7 18.75-33.45L18.75-33.45Q18.75-33.15 18.35-32.7L18.35-32.7Q16.9-31.3 14.93-28.68 12.95-26.05 10.63-22.3 8.3-18.55 6.7-13.9 5.1-9.25 5.1-5.15L5.1-5.15Q5.1-0.85 7.95-0.85L7.95-0.85Q14-0.85 21.2-13.35L21.2-13.35Q27.1-23.5 27.1-31.75L27.1-31.75Q27.1-33.3 25.95-33.3ZM22.1-3.45L22.1-3.45Q22.9-5.45 24.37-8.1 25.85-10.75 26.95-12.4L26.95-12.4 28.05-14Q28.75-15 29.45-15L29.45-15Q30-15 30-14.45L30-14.45 29.85-13.95Q28.05-9.4 28.05-6.1L28.05-6.1Q28.05-3.45 29.22-1.78 30.4-0.1 32.9-0.1L32.9-0.1Q36.65-0.1 38.95-3.38 41.25-6.65 41.25-10.45L41.25-10.45Q41.25-13.7 39.02-19.73 36.8-25.75 36.8-27.9L36.8-27.9Q36.8-32.55 40.77-35.38 44.75-38.2 49.5-38.2L49.5-38.2Q50.35-38.2 51.17-38.1 52-38 53-37.77 54-37.55 54.6-37.05 55.2-36.55 55.2-35.8L55.2-35.8Q55.2-34.8 53.8-32.4 52.4-30 51.45-28.75L51.45-28.75Q51.1-28.5 50.85-28.5L50.85-28.5Q50.5-28.5 50.5-29.1L50.5-29.1Q50.5-30.5 50.8-32.9L50.8-32.9Q50.8-36.8 47.8-36.8L47.8-36.8Q45.25-36.8 43.47-35.05 41.7-33.3 41.7-30.8L41.7-30.8Q41.7-27.5 44.02-21.6 46.35-15.7 46.35-12.5L46.35-12.5Q46.35-6.5 41.62-2.63 36.9 1.25 31 1.25L31 1.25Q30 1.25 28.6 1.05 27.2 0.85 25.65 0.43 24.1 0 23.02-0.83 21.95-1.65 21.95-2.7L21.95-2.7Q21.95-3.1 22.1-3.45Z" opacity="1" transform="matrix(1,0,0,1,0,0)" fill="#2e30ff" class="wordmark-text-0" data-fill-palette-color="primary" id="text-0"></path></svg></g></svg></g></svg></g></svg></g><g></g></svg></g><defs></defs></svg><rect width="343.71385390428213" height="247.2" fill="none" stroke="none" visibility="hidden"></rect></g></svg></g></svg>